<svg xmlns="http://www.w3.org/2000/svg" width="1280" height="640" viewBox="0 0 1280 640"><defs><linearGradient id="bg" x1="0%" x2="100%" y1="0%" y2="100%"><stop offset="0%" style="stop-color:#0b1120"/><stop offset="50%" style="stop-color:#0f172a"/><stop offset="100%" style="stop-color:#1e1b4b"/></linearGradient><linearGradient id="glow" x1="0%" x2="100%" y1="0%" y2="0%"><stop offset="0%" style="stop-color:#6366f1"/><stop offset="100%" style="stop-color:#a78bfa"/></linearGradient></defs><rect width="1280" height="640" fill="url(#bg)"/><g stroke="#fff" stroke-width=".5" opacity=".03"><line x1="0" x2="1280" y1="80" y2="80"/><line x1="0" x2="1280" y1="160" y2="160"/><line x1="0" x2="1280" y1="240" y2="240"/><line x1="0" x2="1280" y1="320" y2="320"/><line x1="0" x2="1280" y1="400" y2="400"/><line x1="0" x2="1280" y1="480" y2="480"/><line x1="0" x2="1280" y1="560" y2="560"/><line x1="160" x2="160" y1="0" y2="640"/><line x1="320" x2="320" y1="0" y2="640"/><line x1="480" x2="480" y1="0" y2="640"/><line x1="640" x2="640" y1="0" y2="640"/><line x1="800" x2="800" y1="0" y2="640"/><line x1="960" x2="960" y1="0" y2="640"/><line x1="1120" x2="1120" y1="0" y2="640"/></g><circle cx="640" cy="320" r="250" fill="#6366F1" filter="blur(60px)" opacity=".08"/><g transform="translate(140, 200)"><rect width="80" height="280" x="0" y="0" fill="#1E293B" opacity=".6" rx="12"/><rect width="50" height="8" x="15" y="20" fill="#475569" rx="4"/><rect width="50" height="8" x="15" y="40" fill="#334155" rx="4"/><rect width="35" height="8" x="15" y="60" fill="#334155" rx="4"/><rect width="920" height="280" x="95" y="0" fill="#1E293B" opacity=".3" rx="12"/><rect width="200" height="60" x="110" y="15" fill="#1E293B" rx="10"/><rect width="200" height="60" x="325" y="15" fill="#1E293B" rx="10"/><rect width="200" height="60" x="540" y="15" fill="#1E293B" rx="10"/><rect width="245" height="60" x="755" y="15" fill="#1E293B" rx="10"/><rect width="600" height="175" x="110" y="90" fill="#1E293B" rx="10"/><rect width="275" height="175" x="725" y="90" fill="#1E293B" rx="10"/><g stroke="#6366F1" stroke-linecap="round" stroke-width="3" opacity=".4"><polyline points="130 240 200 210 280 230 360 190 440 200 520 170 600 180 690 140"/></g><circle cx="130" cy="240" r="4" fill="#8B5CF6"/><circle cx="200" cy="210" r="4" fill="#8B5CF6"/><circle cx="280" cy="230" r="4" fill="#8B5CF6"/><circle cx="360" cy="190" r="4" fill="#8B5CF6"/><circle cx="440" cy="200" r="4" fill="#8B5CF6"/><circle cx="520" cy="170" r="4" fill="#8B5CF6"/><circle cx="600" cy="180" r="4" fill="#8B5CF6"/><circle cx="690" cy="140" r="4" fill="#8B5CF6"/><rect width="20" height="70" x="740" y="170" fill="#6366F1" opacity=".5" rx="4"/><rect width="20" height="90" x="770" y="150" fill="#6366F1" opacity=".5" rx="4"/><rect width="20" height="110" x="800" y="130" fill="#818CF8" opacity=".6" rx="4"/><rect width="20" height="80" x="830" y="160" fill="#6366F1" opacity=".5" rx="4"/><rect width="20" height="100" x="860" y="140" fill="#6366F1" opacity=".5" rx="4"/><rect width="20" height="120" x="890" y="120" fill="#818CF8" opacity=".6" rx="4"/><rect width="20" height="90" x="920" y="150" fill="#6366F1" opacity=".5" rx="4"/><rect width="20" height="70" x="950" y="170" fill="#6366F1" opacity=".5" rx="4"/></g><text x="640" y="100" fill="url(#glow)" font-family="system-ui, -apple-system, sans-serif" font-size="64" font-weight="900" letter-spacing="-1" text-anchor="middle">Dashdeck</text><text x="640" y="138" fill="#94A3B8" font-family="system-ui, -apple-system, sans-serif" font-size="20" text-anchor="middle">22+ Dashboards · AI Analytics · Zero Backend</text></svg>