<svg xmlns="http://www.w3.org/2000/svg" xmlns:ns1="http://www.w3.org/1999/xlink" fill="none" viewBox="0 0 2000 2000" width="2000" height="2000"><defs><clipPath id="assetClipPath_S8awoNZg"><path d="m0 0 h 1830.468 v 1514.809 h -1830.468 v -1514.809 z" id="path_yogUlEYN" fill="#ffffff" /></clipPath></defs><g transform="translate(83 200)" data-asset-index="0"><g clip-path="url(#assetClipPath_S8awoNZg)" transform="scale(1.018318812456705 1.0186102670369663)" data-asset-index="0"><defs>
    <linearGradient id="linearGradient_-AxLeYDM" x1="758.607" y1="2016.969" x2="752.479" y2="540.203" gradientUnits="userSpaceOnUse">
      <stop offset="0" stop-color="#424242" />
      <stop offset=".922" stop-color="#848484" />
    </linearGradient>
    <linearGradient id="linearGradient_zz0ZaVMt" x1="725.097" y1="1115.723" x2="809.366" y2="908.901" gradientUnits="userSpaceOnUse">
      <stop offset="0" stop-color="#C9A0CC" />
      <stop offset=".13" stop-color="#A0CEEF" />
      <stop offset=".224" stop-color="#FFFFFF" />
      <stop offset=".335" stop-color="#F3BBD6" />
      <stop offset=".638" stop-color="#C6B5D9" />
      <stop offset=".763" stop-color="#FCFDFF" />
      <stop offset=".854" stop-color="#F4CCE7" />
      <stop offset=".964" stop-color="#A98BD1" />
    </linearGradient>
    <linearGradient id="linearGradient_jZ73Je5m" x1="416.481" y1="2018.389" x2="410.354" y2="541.623" ns1:href="#linearGradient_-AxLeYDM" />
    <linearGradient id="linearGradient_shIyog0s" x1="311.496" y1="1400.098" x2="878.097" y2="506.832" gradientUnits="userSpaceOnUse">
      <stop offset=".196" stop-color="#424242" />
      <stop offset=".973" stop-color="#232323" />
    </linearGradient>
    <linearGradient id="linearGradient_A7l7lTrC" x1="399.061" y1="1097.492" x2="490.864" y2="932.62" ns1:href="#linearGradient_zz0ZaVMt" />
    <linearGradient id="linearGradient_MnjWBXQZ" x1="134.771" y1="2019.558" x2="128.643" y2="542.792" ns1:href="#linearGradient_-AxLeYDM" />
    <linearGradient id="linearGradient_LsBXY3Jt" x1="72.952" y1="1432.582" x2="309.775" y2="1024.936" ns1:href="#linearGradient_zz0ZaVMt" />
    <linearGradient id="linearGradient_tKCot5Ri" x1="277.448" y1="1382.575" x2="827.457" y2="469.968" gradientUnits="userSpaceOnUse">
      <stop offset=".196" stop-color="#424242" />
      <stop offset=".978" stop-color="#232323" />
    </linearGradient>
    <linearGradient id="linearGradient_eDU-ZxvE" x1="652.333" y1="2017.41" x2="646.205" y2="540.644" ns1:href="#linearGradient_-AxLeYDM" />
    <linearGradient id="linearGradient_UTH3DJf-" x1="637.822" y1="909.522" x2="723.501" y2="706.435" ns1:href="#linearGradient_zz0ZaVMt" />
    <linearGradient id="linearGradient_fNMZiqC-" x1="347.55" y1="1414.346" x2="907.324" y2="530.48" gradientUnits="userSpaceOnUse">
      <stop offset=".196" stop-color="#424242" />
      <stop offset=".978" stop-color="#232323" />
    </linearGradient>
    <linearGradient id="linearGradient_XnqvCBsx" x1="1236.885" y1="2015.09" x2="1230.757" y2="538.324" ns1:href="#linearGradient_-AxLeYDM" />
    <linearGradient id="linearGradient_qakRa3Sd" x1="1146.255" y1="1103.015" x2="1197.93" y2="907.524" ns1:href="#linearGradient_zz0ZaVMt" />
    <linearGradient id="linearGradient_Bl_8ynog" x1="1384.452" y1="1367.412" x2="700.959" y2="538.447" gradientUnits="userSpaceOnUse">
      <stop offset=".196" stop-color="#424242" />
      <stop offset=".977" stop-color="#232323" />
    </linearGradient>
    <linearGradient id="linearGradient_1mqvzCNA" x1="1631.139" y1="2013.349" x2="1625.011" y2="536.583" ns1:href="#linearGradient_-AxLeYDM" />
    <linearGradient id="linearGradient_8F1UaCXL" x1="1418.862" y1="1334.53" x2="754.624" y2="500.072" gradientUnits="userSpaceOnUse">
      <stop offset=".196" stop-color="#424242" />
      <stop offset=".974" stop-color="#232323" />
    </linearGradient>
    <linearGradient id="linearGradient_J2ZY8_S0" x1="1513.91" y1="1288.768" x2="1559.145" y2="1044.894" ns1:href="#linearGradient_zz0ZaVMt" />
    <linearGradient id="linearGradient_7udsEH5P" x1="1390.266" y1="2014.348" x2="1384.138" y2="537.582" ns1:href="#linearGradient_-AxLeYDM" />
    <linearGradient id="linearGradient_ghnORv8h" x1="1569.913" y1="1218.893" x2="857.763" y2="400.651" gradientUnits="userSpaceOnUse">
      <stop offset=".196" stop-color="#424242" />
      <stop offset=".981" stop-color="#232323" />
    </linearGradient>
    <linearGradient id="linearGradient_gfaplL4I" x1="212.932" y1="2019.234" x2="206.805" y2="542.468" ns1:href="#linearGradient_-AxLeYDM" />
    <linearGradient id="linearGradient_zxAPNLPj" x1="134.644" y1="966.084" x2="820.736" y2="664.303" gradientUnits="userSpaceOnUse">
      <stop offset=".196" stop-color="#424242" />
      <stop offset=".918" stop-color="#232323" />
    </linearGradient>
    <linearGradient id="linearGradient_8-2NWr3e" x1="196.907" y1="957.418" x2="311.392" y2="751.294" ns1:href="#linearGradient_zz0ZaVMt" />
    <linearGradient id="linearGradient_WsfxIirv" x1="573.41" y1="2017.9" x2="567.281" y2="540.972" ns1:href="#linearGradient_-AxLeYDM" />
    <linearGradient id="linearGradient_HjXk1oBI" x1="344.387" y1="455.438" x2="1051.466" y2="837.049" gradientUnits="userSpaceOnUse">
      <stop offset=".196" stop-color="#424242" />
      <stop offset=".832" stop-color="#232323" />
    </linearGradient>
    <linearGradient id="linearGradient_YIxTVHvP" x1="641.052" y1="824.934" x2="585.903" y2="649.275" ns1:href="#linearGradient_zz0ZaVMt" />
    <linearGradient id="linearGradient_KhhH_HLV" x1="836.112" y1="2016.648" x2="829.984" y2="539.882" ns1:href="#linearGradient_-AxLeYDM" />
    <linearGradient id="linearGradient_9fr35LFe" x1="899.022" y1="481.975" x2="809.996" y2="198.412" ns1:href="#linearGradient_zz0ZaVMt" />
    <linearGradient id="linearGradient_m0tbw9qd" x1="1656.146" y1="2013.245" x2="1650.018" y2="536.479" ns1:href="#linearGradient_-AxLeYDM" />
    <linearGradient id="linearGradient_wmf0uQwR" x1="1489.68" y1="233.908" x2="579.641" y2="855.914" gradientUnits="userSpaceOnUse">
      <stop offset=".162" stop-color="#424242" />
      <stop offset=".853" stop-color="#232323" />
    </linearGradient>
    <linearGradient id="linearGradient_VJAsjaut" x1="1612.683" y1="456.592" x2="1560.596" y2="290.685" ns1:href="#linearGradient_zz0ZaVMt" />
    <linearGradient id="linearGradient_uozI8yzB" x1="1275.968" y1="2014.823" x2="1269.84" y2="538.057" ns1:href="#linearGradient_-AxLeYDM" />
    <linearGradient id="linearGradient_7u32-2Hs" x1="1492.538" y1="184.437" x2="560.085" y2="824.954" gradientUnits="userSpaceOnUse">
      <stop offset=".121" stop-color="#424242" />
      <stop offset=".85" stop-color="#232323" />
    </linearGradient>
    <linearGradient id="linearGradient_-gFm8d7M" x1="1251.767" y1="656.605" x2="1196.618" y2="480.945" ns1:href="#linearGradient_zz0ZaVMt" />
    <linearGradient id="linearGradient_KZXaKeTq" x1="206.098" y1="2019.397" x2="199.97" y2="542.52" ns1:href="#linearGradient_-AxLeYDM" />
    <linearGradient id="linearGradient_zxnAmkiy" x1="315.719" y1="740.323" x2="245.857" y2="517.798" ns1:href="#linearGradient_zz0ZaVMt" />
    <linearGradient id="linearGradient_4xOAPxmv" x1="359.992" y1="395.219" x2="1086.313" y2="779.324" gradientUnits="userSpaceOnUse">
      <stop offset=".196" stop-color="#424242" />
      <stop offset=".83" stop-color="#232323" />
    </linearGradient>
  </defs><g id="abstract_figure_cubes">
    <g id="FNxM24jk9v0GPAre41tK">
      <rect x="591.489" y="1042.383" width="326.979" height="200.511" fill="url(#linearGradient_-AxLeYDM)" id="BvrB2qq0vlAxMF7w2rQah" />
      <polygon points="883.745 954.723 918.468 1042.383 591.489 1042.383 653.617 954.723 883.745 954.723" fill="url(#linearGradient_zz0ZaVMt)" id="BullX0HJbhaoivUFqqTk" />
    </g>
    <g id="o66T26ya2Go7H8UGTooYC">
      <polygon points="488.447 1180.05 487.021 1184.851 337.064 1184.851 337.064 1052.911 487.021 1052.911 488.447 1055.965 488.447 1180.05" fill="url(#linearGradient_jZ73Je5m)" id="yT384nDiamSruaMmuLUJ-" />
      <polygon points="487.021 1184.851 538.718 1112.34 538.718 1002.601 487.021 1052.911 487.021 1184.851" fill="url(#linearGradient_shIyog0s)" id="amb2R0I6uNWa9K0H-KVAG" />
      <polygon points="337.064 1052.911 487.021 1052.911 538.718 1002.601 413.992 1002.601 337.064 1052.911" fill="url(#linearGradient_A7l7lTrC)" id="AYUoSwth5sBcy5uuuDAJn" />
    </g>
    <g id="d9j_DmyQ7kFpEn8n7s4mB">
      <polygon points="264.362 1495.795 261.021 1505.191 0 1505.191 0 1275.532 261.021 1275.532 264.362 1285.412 264.362 1495.795" fill="url(#linearGradient_MnjWBXQZ)" id="YxojgyoKBUX34L_yRX8PH" />
      <polygon points="233.197 1121.711 0 1275.532 261.021 1275.532 417.745 1121.711 233.197 1121.711" fill="url(#linearGradient_LsBXY3Jt)" id="CPE1943yDBxbuXfHcaNJ2" />
      <polygon points="261.021 1505.191 261.021 1275.532 417.745 1121.711 417.745 1284.085 261.021 1505.191" fill="url(#linearGradient_tKCot5Ri)" id="eAfHyAL6Gfr_rNeagaO7" />
    </g>
    <g id="HvAHterwBWRrqzqeXyBKK">
      <polygon points="676.255 918.357 617.958 918.357 617.958 867.064 676.255 867.064 677.383 868.944 677.383 915.54 676.255 918.357" fill="url(#linearGradient_eDU-ZxvE)" id="Eq789aPtPU3mFSqBf1e6S" />
      <polygon points="705.66 838.268 661.447 838.268 617.958 867.064 676.255 867.064 705.66 838.268" fill="url(#linearGradient_UTH3DJf-)" id="Girro44z6v4XF-zOium0m" />
      <polygon points="676.255 918.357 676.255 867.064 705.66 838.268 705.66 877.169 676.255 918.357" fill="url(#linearGradient_fNMZiqC-)" id="GuQj_W488slBmbky4Wq1H" />
    </g>
    <g id="fVawkxcdouvHbXQXfH9_-">
      <polygon points="1337.191 1145.702 1130.383 1145.702 1128.62 1139.544 1128.62 979.88 1130.383 972.766 1337.191 972.766 1337.191 1145.702" fill="url(#linearGradient_XnqvCBsx)" id="qULD6Z00-4mzFFPmaPuxe" />
      <polygon points="1337.191 972.766 1190.638 910.979 1040.511 910.979 1130.383 972.766 1337.191 972.766" fill="url(#linearGradient_qakRa3Sd)" id="mVZ9UplSy8FZHPrqHKPaN" />
      <polygon points="1130.383 1145.702 1130.383 972.766 1040.511 910.979 1040.511 1036.769 1130.383 1145.702" fill="url(#linearGradient_Bl_8ynog)" id="OeJqgrtsBRWWq84LjfZ1Y" />
    </g>
    <g id="puVMTrqbaF3Hg6f005Vk-">
      <polygon points="1830.468 1514.809 1431.83 1514.809 1426.234 1502.263 1426.234 1197.412 1431.83 1180.596 1830.468 1180.596 1830.468 1514.809" fill="url(#linearGradient_1mqvzCNA)" id="ne_dGZK7AKWOyxP81gLFe" />
      <polygon points="1259.574 1304.648 1431.83 1514.809 1431.83 1180.596 1259.574 1061.48 1259.574 1304.648" fill="url(#linearGradient_8F1UaCXL)" id="ZiqMmgoW-BMbjOI84aGR" />
      <polygon points="1830.468 1180.596 1431.83 1180.596 1259.574 1061.48 1549.617 1061.48 1830.468 1180.596" fill="url(#linearGradient_J2ZY8_S0)" id="CKVoGXE_np0O5-5K6lnb5" />
    </g>
    <g id="Pu-f9M3HKmB3gmG44gEm">
      <polygon points="1520.511 895.915 1252.872 895.915 1249.75 893.422 1249.553 668.22 1252.872 660.042 1520.511 660.042 1520.511 895.915" fill="url(#linearGradient_7udsEH5P)" id="Qxip11sW33cWYuZV1AAW" />
      <polygon points="1252.872 895.915 1064.426 832.681 1064.426 695.936 1252.872 660.042 1252.872 895.915" fill="url(#linearGradient_ghnORv8h)" id="FZqkmF7xyfZNmYtEghiG" />
    </g>
    <g id="cNqhoQPk3Qkju8CuKYjRH">
      <polygon points="304.872 974.008 302.407 980.708 111.66 980.708 111.66 803.877 302.407 803.877 304.872 808.561 304.872 974.008" fill="url(#linearGradient_gfaplL4I)" id="w9LpqLuWbxQ_VFHrTSojR" />
      <polygon points="302.407 980.708 463.097 904.202 463.097 785.181 302.407 803.877 302.407 980.708" fill="url(#linearGradient_zxAPNLPj)" id="w3YEjefvjcEO-m874ZOah" />
      <polygon points="111.66 803.877 314 785.181 463.097 785.181 302.407 803.877 111.66 803.877" fill="url(#linearGradient_8-2NWr3e)" id="UAmweHsgmPnaFuS1CCyK0" />
    </g>
    <g id="QHg5WCjRZobiNTw1NF3p">
      <polygon points="641.128 685.978 494.638 685.978 494.638 541.043 637.277 541.043 639.34 550.433 641.128 685.978" fill="url(#linearGradient_WsfxIirv)" id="SDb7uwTSuXBLf1aY2-qNB" />
      <polygon points="637.277 541.043 708.17 630.42 708.17 711.319 637.277 685.978 637.277 541.043" fill="url(#linearGradient_HjXk1oBI)" id="r-Q1AfU1fXn_2tvvdiY3" />
      <polygon points="494.638 685.978 628.553 711.319 708.17 711.319 637.277 685.978 494.638 685.978" fill="url(#linearGradient_YIxTVHvP)" id="B8TtssxqVId8Y52DMh3li" />
    </g>
    <g id="nrGKzxWsnThofr3DY2ska">
      <rect x="666.085" width="324.383" height="256.638" fill="url(#linearGradient_KhhH_HLV)" id="C1OiV6L3k4-20Pu0p43CW" />
      <polygon points="666.085 256.638 731 400.467 900.085 400.467 990.468 256.638 666.085 256.638" fill="url(#linearGradient_9fr35LFe)" id="o4KhnVt20H7oproxc_c--" />
    </g>
    <g id="n_yF5sukgIpos8BWrpd1K">
      <polygon points="1772.511 326.043 1524.787 326.043 1527.34 100.05 1529.702 87.064 1772.511 87.064 1772.511 326.043" fill="url(#linearGradient_m0tbw9qd)" id="TEkoPC3OqvJojZVx7edTt" />
      <polygon points="1395.277 209.617 1529.702 87.064 1529.702 326.043 1395.277 403.74 1395.277 209.617" fill="url(#linearGradient_wmf0uQwR)" id="djF3I1ECc_xk2XOSO7FNt" />
      <polygon points="1772.511 326.043 1529.702 326.043 1395.277 403.74 1592.511 403.74 1772.511 326.043" fill="url(#linearGradient_VJAsjaut)" id="eWQx1oIU_kKlumY2fi1OD" />
    </g>
    <g id="wqtcdMVABPlUHKbVwrYw">
      <polygon points="1340.255 512 1198.149 512 1198.149 274.008 1201.553 256.638 1340.255 256.638 1340.255 512" fill="url(#linearGradient_uozI8yzB)" id="A1n5ZjVFIX9KXt59fwY4s" />
      <polygon points="1201.553 256.638 1092.037 389.855 1092.037 574.296 1201.553 512 1201.553 256.638" fill="url(#linearGradient_7u32-2Hs)" id="klRn2c_ZlaTfmh-_NMYrl" />
      <polygon points="1340.255 512 1201.553 512 1092.037 574.296 1192.218 574.296 1340.255 512" fill="url(#linearGradient_-gFm8d7M)" id="h9ghEa8OTuommKGO4eeKJ" />
    </g>
    <g id="ATcaqBrDalh8waj2sNdDS">
      <polygon points="387.851 594.298 11.064 594.298 11.064 218.383 381.021 218.383 387.851 243.54 387.851 594.298" fill="url(#linearGradient_KZXaKeTq)" id="dVcQZlTdFlc1vBw_8zkBA" />
      <polygon points="11.064 594.298 325.447 653.787 547.362 653.787 381.021 594.298 11.064 594.298" fill="url(#linearGradient_zxnAmkiy)" id="AtD_Ev9deVQmEgS-dpxfT" />
      <polygon points="381.021 218.383 381.021 594.298 547.362 653.787 547.362 428.299 381.021 218.383" fill="url(#linearGradient_4xOAPxmv)" id="ObuAecms7SGO51j4YxQv" />
    </g>
  </g></g></g></svg>