<svg xmlns="http://www.w3.org/2000/svg" fill="none" viewBox="0 0 2000 2000" width="2000" height="2000"><defs><clipPath id="assetClipPath_vegDwo-8"><path d="m0 0 h 1514.2 v 1925.4 h -1514.2 v -1925.4 z" id="path_xh-XfCwv" fill="#ffffff" /></clipPath></defs><g transform="translate(278 33)" data-asset-index="0"><g clip-path="url(#assetClipPath_vegDwo-8)" transform="scale(0.9932637696473385 0.992521034590215)" data-asset-index="0"><g id="Abstract_composition_sixteen">
	<g id="n7dQozlBLvPzc89iXPsTa">
		
			<linearGradient id="linearGradient_b9JnuWVC" gradientUnits="userSpaceOnUse" x1="432.779" y1="558.4001" x2="1005.0693" y2="1737.0112" gradientTransform="matrix(1 0 0 -1 0 1928)">
			<stop offset="0.277" stop-color="#232323" />
			<stop offset="0.922" stop-color="#424242" />
		</linearGradient>
		<polygon class="st0" points="0,702.2 757.1,1036.2 1514.2,702.2 757.1,112.9 1.9,697.1   " id="DrTrD7dGcpxrHVUAQEn9s" fill="url(#linearGradient_b9JnuWVC)" />
		
			<linearGradient id="linearGradient_7WSCKOr3" gradientUnits="userSpaceOnUse" x1="-105.5784" y1="1202.0475" x2="902.7986" y2="1982.7805" gradientTransform="matrix(1 0 0 -1 0 1928)">
			<stop offset="0" stop-color="#424242" />
			<stop offset="0.922" stop-color="#848484" />
		</linearGradient>
		<polygon points="0,702.2 757.1,118.9 757.1,0     0,583.3   " fill="url(#linearGradient_7WSCKOr3)" id="Iv9WAIa7NZwf5SChA8wXE" />
	</g>
	<g id="WbttPNW2CgBVP0l9u8Y9U">
		
			<linearGradient id="linearGradient_Kuvn5Yyr" gradientUnits="userSpaceOnUse" x1="472.1413" y1="499.1426" x2="958.6975" y2="1501.1863" gradientTransform="matrix(1 0 0 -1 0 1928)">
			<stop offset="0.277" stop-color="#232323" />
			<stop offset="0.922" stop-color="#424242" />
		</linearGradient>
		<polygon points="64,842 757.1,1116.2 1450.2,842     757.1,364.9 75.4,826.8   " fill="url(#linearGradient_Kuvn5Yyr)" id="nBOLK35H1z1DuIovqMW0R" />
		
			<linearGradient id="linearGradient_AhcfRD2e" gradientUnits="userSpaceOnUse" x1="-18.3061" y1="1050.5781" x2="880.0889" y2="1746.1591" gradientTransform="matrix(1 0 0 -1 0 1928)">
			<stop offset="0" stop-color="#424242" />
			<stop offset="0.922" stop-color="#848484" />
		</linearGradient>
		<polygon points="757.1,248.8 757.1,367.7 64,842     64,723   " fill="url(#linearGradient_AhcfRD2e)" id="lyQyTYM4nFOfHtiEUyN_G" />
	</g>
	<g id="IDLl4kbauR-_CwRJ_3MN">
		
			<linearGradient id="linearGradient_I8aLxrOo" gradientUnits="userSpaceOnUse" x1="518.1633" y1="474.9834" x2="907.1229" y2="1276.0283" gradientTransform="matrix(1 0 0 -1 0 1928)">
			<stop offset="0.277" stop-color="#232323" />
			<stop offset="0.922" stop-color="#424242" />
		</linearGradient>
		<polygon points="144.7,960.9 757.1,1149.4     1369.6,960.9 757.1,607.9 155.1,944.8   " fill="url(#linearGradient_I8aLxrOo)" id="Trxj9GOnHKBCmqmBpgJz2" />
		
			<linearGradient id="linearGradient_O6UDI9mW" gradientUnits="userSpaceOnUse" x1="88.271" y1="920.037" x2="886.537" y2="1538.093" gradientTransform="matrix(1 0 0 -1 0 1928)">
			<stop offset="0" stop-color="#424242" />
			<stop offset="0.922" stop-color="#848484" />
		</linearGradient>
		<polygon points="757.1,493.5 757.1,612.4     144.7,960.9 144.7,842   " fill="url(#linearGradient_O6UDI9mW)" id="xoLV0pGUwCCyI2cdDCMqf" />
	</g>
	<g id="ax5lTXAtEpxaFc205GiRb">
		
			<linearGradient id="linearGradient_4-AkHWxx" gradientUnits="userSpaceOnUse" x1="561.8889" y1="430.2901" x2="865.7789" y2="1056.14" gradientTransform="matrix(1 0 0 -1 0 1928)">
			<stop offset="0.277" stop-color="#232323" />
			<stop offset="0.922" stop-color="#424242" />
		</linearGradient>
		<polygon points="233.9,1095.6 757.1,1194     1280.3,1095.6 757.4,857.2 245.3,1086.9   " fill="url(#linearGradient_4-AkHWxx)" id="v5wDCixyGlSwP6IAnGnHg" />
		
			<linearGradient id="linearGradient_Kja04w1m" gradientUnits="userSpaceOnUse" x1="198.8448" y1="779.5112" x2="874.6769" y2="1302.7722" gradientTransform="matrix(1 0 0 -1 0 1928)">
			<stop offset="0" stop-color="#424242" />
			<stop offset="0.922" stop-color="#848484" />
		</linearGradient>
		<polygon points="757.1,742 757.1,860.9     233.9,1095.6 233.9,976.7   " fill="url(#linearGradient_Kja04w1m)" id="hdL_3PTXXtcXzIXf9s951" />
	</g>
	<g id="p-Rp-b24g0AI_HTd9ev6V">
		
			<linearGradient id="linearGradient_JEMbXVsP" gradientUnits="userSpaceOnUse" x1="600.613" y1="359.364" x2="844.222" y2="861.066" gradientTransform="matrix(1 0 0 -1 0 1928)">
			<stop offset="0.277" stop-color="#232323" />
			<stop offset="0.922" stop-color="#424242" />
		</linearGradient>
		<polygon points="337.7,1246.3 757.1,1296.9     1176.6,1246.3 757.1,1100 350.2,1233.3   " fill="url(#linearGradient_JEMbXVsP)" id="aMfE9ge6VNxYqFjKzXsWH" />
		
			<linearGradient id="linearGradient_P0rd82el" gradientUnits="userSpaceOnUse" x1="316.227" y1="632.928" x2="842.116" y2="1040.0969" gradientTransform="matrix(1 0 0 -1 0 1928)">
			<stop offset="0" stop-color="#424242" />
			<stop offset="0.922" stop-color="#848484" />
		</linearGradient>
		<polygon points="757.1,985.9 757.1,1104.8     337.7,1246.3 337.7,1127.4   " fill="url(#linearGradient_P0rd82el)" id="NTmYfNcM3dt5zS_nrcrjR" />
	</g>
	<g id="WG-977UUihN-pJq9tvXqo">
		
			<linearGradient id="linearGradient_owj0OS1n" gradientUnits="userSpaceOnUse" x1="644.1406" y1="277.1672" x2="819.9976" y2="639.3382" gradientTransform="matrix(1 0 0 -1 0 1928)">
			<stop offset="0.277" stop-color="#232323" />
			<stop offset="0.922" stop-color="#424242" />
		</linearGradient>
		<polygon points="454.3,1418.2 757.1,1450.2     1059.9,1418.2 756.4,1356.6 465.6,1411   " fill="url(#linearGradient_owj0OS1n)" id="bxrJcafBV-xCBL_y-60Q_" />
		
			<linearGradient id="linearGradient_B3sJGfur" gradientUnits="userSpaceOnUse" x1="441.6187" y1="471.9864" x2="840.5007" y2="780.8193" gradientTransform="matrix(1 0 0 -1 0 1928)">
			<stop offset="0" stop-color="#424242" />
			<stop offset="0.922" stop-color="#848484" />
		</linearGradient>
		<polygon points="757.1,1239.8 757.1,1358.7     454.3,1418.2 454.3,1299.2   " fill="url(#linearGradient_B3sJGfur)" id="ydvo8pjcqCci0uioyRTq8" />
	</g>
	<g id="YlLVAUcjVOv_U9fQs4Eem">
		
			<linearGradient id="linearGradient_70sOpHnk" gradientUnits="userSpaceOnUse" x1="574.1505" y1="297.2715" x2="795.0225" y2="468.2825" gradientTransform="matrix(1 0 0 -1 0 1928)">
			<stop offset="0" stop-color="#424242" />
			<stop offset="0.922" stop-color="#848484" />
		</linearGradient>
		<polygon points="757.1,1486.8 758.2,1607.8     618.3,1617.9 589.9,1617.9 589.9,1499   " fill="url(#linearGradient_70sOpHnk)" id="gY4NfFmo5z2JwZh-_v0rt" />
		
			<linearGradient id="linearGradient_Z9E-qv5c" gradientUnits="userSpaceOnUse" x1="588.0719" y1="281.8636" x2="904.3959" y2="334.6446" gradientTransform="matrix(1 0 0 -1 0 1928)">
			<stop offset="0.277" stop-color="#232323" />
			<stop offset="0.922" stop-color="#424242" />
		</linearGradient>
		<polygon points="924.4,1617.9 757.1,1625.2     589.9,1617.9 757.1,1605.7   " fill="url(#linearGradient_Z9E-qv5c)" id="k2vZ2WzapDczoRgPA5k8M" />
	</g>
	<g id="LNXfLM5znNat-mCloNjFE">
		
			<linearGradient id="linearGradient_7_qmAx7S" gradientUnits="userSpaceOnUse" x1="685.7772" y1="78.9983" x2="805.7675" y2="171.902" gradientTransform="matrix(1 0 0 -1 0 1928)">
			<stop offset="0" stop-color="#424242" />
			<stop offset="0.922" stop-color="#848484" />
		</linearGradient>
		<polygon points="760.4,1764.3 757.1,1925.4     651.6,1743.8 660.6,1743.6   " fill="url(#linearGradient_7_qmAx7S)" id="WHmuktL0xxbrXcQBZbIle" />
		
			<linearGradient id="linearGradient_CDGCmitB" gradientUnits="userSpaceOnUse" x1="611.306" y1="182.2872" x2="826.049" y2="185.3392" gradientTransform="matrix(1 0 0 -1 0 1928)">
			<stop offset="0.277" stop-color="#232323" />
			<stop offset="0.922" stop-color="#424242" />
		</linearGradient>
		<polygon points="651.6,1743.8 757.1,1766.4     862.6,1743.8 757.1,1720.9   " fill="url(#linearGradient_CDGCmitB)" id="dK48-sxb3gx_Ste93DudZ" />
	</g>
	
		<linearGradient id="linearGradient_MvO3XjeM" gradientUnits="userSpaceOnUse" x1="677.288" y1="991.1989" x2="1221.115" y2="814.7979" gradientTransform="matrix(1 0 0 -1 0 1928)">
		<stop offset="0" stop-color="#C9A0CC" />
		<stop offset="0.13" stop-color="#A0CEEF" />
		<stop offset="0.224" stop-color="#FFFFFF" />
		<stop offset="0.335" stop-color="#F3BBD6" />
		<stop offset="0.638" stop-color="#C6B5D9" />
		<stop offset="0.763" stop-color="#FCFDFF" />
		<stop offset="0.854" stop-color="#F4CCE7" />
		<stop offset="0.964" stop-color="#A98BD1" />
	</linearGradient>
	<path d="M1514.2,702.2L757.1,118.9V0l757.1,583.3   V702.2z M757.1,248.8v118.9L1450.2,842V723L757.1,248.8z M757.1,493.5v118.9l612.4,348.5V842L757.1,493.5L757.1,493.5z M757.1,742   v118.9l523.2,234.7V976.7L757.1,742z M757.1,985.9v118.9l419.4,141.5v-118.9L757.1,985.9L757.1,985.9z M757.1,1239.8v118.9   l302.8,59.5v-118.9L757.1,1239.8L757.1,1239.8z M757.1,1766.4v159l105.5-181.6L757.1,1766.4L757.1,1766.4z M757.1,1486.8v118.9   l167.3,12.2V1499L757.1,1486.8z" fill="url(#linearGradient_MvO3XjeM)" id="kZ1DXfoYTEOq_t8Q8IVME" />
</g></g></g></svg>